<svg width="23" height="16" viewBox="0 0 23 16" fill="none" xmlns="http://www.w3.org/2000/svg">
<path d="M1.22514 0C0.557172 0 0 0.549144 0 1.21693V14.4569C0 15.1247 0.557172 15.682 1.22514 15.682H21.7749C22.4428 15.682 23 15.1247 23 14.4569V1.21693C23 0.549097 22.4428 0 21.7749 0H1.22514ZM2.00107 1.04536H20.9989L11.5002 8.45362L2.00107 1.04536ZM1.04536 1.61709L8.43728 7.38343L1.04536 13.9586V1.61709ZM21.9545 1.61709V13.9586L14.5625 7.38343L21.9545 1.61709ZM9.27832 8.03684L11.1815 9.52344C11.3692 9.66764 11.6307 9.66764 11.8184 9.52344L13.7216 8.03684L21.1457 14.6363H1.85382L9.27832 8.03684Z" fill="#D58A5C"/>
</svg>
