<svg width="24" height="21" viewBox="0 0 24 21" fill="none" xmlns="http://www.w3.org/2000/svg">
<path d="M23.9515 2.39631C23.0712 2.80605 22.1245 3.07921 21.1259 3.2083C22.1413 2.57519 22.9223 1.56538 23.2888 0.37229C22.3389 0.95738 21.2866 1.38694 20.1667 1.6134C19.2725 0.617693 17.9971 0 16.5841 0C13.8696 0 11.6698 2.29101 11.6698 5.11557C11.6698 5.51518 11.7143 5.90465 11.7981 6.28267C7.71472 6.06722 4.09307 4.02822 1.67011 0.933589C1.2444 1.68962 1.00492 2.57519 1.00492 3.50966C1.00492 5.28563 1.87059 6.84881 3.19049 7.77006C2.38479 7.74407 1.62649 7.5088 0.962557 7.13122C0.962557 7.14664 0.962557 7.16955 0.962557 7.19114C0.962557 9.67293 2.65699 11.7392 4.90296 12.2098C4.49235 12.3279 4.05868 12.3935 3.61158 12.3935C3.29408 12.3935 2.98497 12.3556 2.68551 12.2992C3.31086 14.3272 5.12525 15.8098 7.27475 15.8534C5.5929 17.2231 3.47485 18.0435 1.17143 18.0435C0.773401 18.0435 0.384603 18.0197 0 17.9708C2.1755 19.4181 4.75952 20.2667 7.53311 20.2667C16.5711 20.2667 21.5151 12.4702 21.5151 5.70683C21.5151 5.48522 21.5084 5.26449 21.4984 5.0464C22.4634 4.3309 23.2947 3.42771 23.9515 2.39631Z" fill="#00B2FF"/>
</svg>
